/vscmnt/brussel_pixiu_data/_data_brussel/112/vsc11236/PredSimResults/SUBJ09mtu3D/weighted-LRposFixed/expIG/worker_01.mot
version=1
nRows=5
nColumns=50
inDegrees=yes
endheader
                time	         pelvis_tilt	         pelvis_list	     pelvis_rotation	           pelvis_tx	           pelvis_ty	           pelvis_tz	       hip_flexion_r	     hip_adduction_r	      hip_rotation_r	        knee_angle_r	       ankle_angle_r	         mtp_angle_r	       hip_flexion_l	     hip_adduction_l	      hip_rotation_l	        knee_angle_l	       ankle_angle_l	         mtp_angle_l	    lumbar_extension	      lumbar_bending	     lumbar_rotation	 ercspn_r/activation	 intobl_r/activation	 extobl_r/activation	    abd_r/activation	    add_r/activation	hamstrings_r/activation	bifemsh_r/activation	glut_max_r/activation	iliopsoas_r/activation	rect_fem_r/activation	  vasti_r/activation	gastroc_r/activation	 soleus_r/activation	tib_ant_r/activation	 ercspn_l/activation	 intobl_l/activation	 extobl_l/activation	    abd_l/activation	    add_l/activation	hamstrings_l/activation	bifemsh_l/activation	glut_max_l/activation	iliopsoas_l/activation	rect_fem_l/activation	  vasti_l/activation	gastroc_l/activation	 soleus_l/activation	tib_ant_l/activation	
          0.63597194	         -7.68476593	          4.76308024	         -7.25224262	          0.75680661	          0.98162739	          0.01128764	        -10.70370861	         -5.07702551	          4.72101082	         -7.23791749	         10.38353333	         27.96417211	         31.20914736	          1.75357640	         -4.82985622	         -2.07005812	          6.51057759	          0.21294961	         -0.47336909	         -3.21663221	          3.72887275	          0.04377655	          0.00999999	          0.00999999	          0.05178486	          0.00999999	          0.01868826	          0.12559562	          0.03841445	          0.44356420	          0.01211986	          0.01209267	          0.31485197	          0.27291574	          0.01468920	          0.09307142	          0.13557882	          0.03238302	          0.02051554	          0.07181021	          0.11640617	          0.23227348	          0.01053273	          0.10564588	          0.00999999	          0.00999999	          0.01191512	          0.00999999	          0.26725425	
          0.64869138	         -7.77076941	          4.69759874	         -7.26870259	          0.77510277	          0.97959807	          0.01108079	        -10.84724176	         -5.03554056	          4.37407906	         -8.77886417	          9.64829231	         30.00786352	         31.20094626	          1.84086984	         -4.70184571	         -3.57711833	          6.06865005	          0.21629803	         -0.17393580	         -3.52658875	          3.84758505	          0.08063002	          0.00999999	          0.00999999	          0.04272711	          0.02608048	          0.02033018	          0.10362755	          0.03169533	          0.43708887	          0.01000000	          0.01893099	          0.28750509	          0.25416242	          0.01211990	          0.07679219	          0.11186458	          0.02671887	          0.01692714	          0.09373343	          0.09992214	          0.19164627	          0.07367747	          0.08716724	          0.00999999	          0.00999999	          0.02254237	          0.01581245	          0.28011718	
          0.66141082	         -7.83655606	          4.63077721	         -7.23634738	          0.79377866	          0.97782157	          0.01079873	        -10.86064847	         -4.98457739	          3.99774016	        -10.61733908	          8.74248500	         32.09112950	         31.02696703	          1.92047209	         -4.57078141	         -5.03991233	          5.58802810	          0.20303921	          0.14373027	         -3.84624015	          3.93633593	          0.07842612	          0.00999999	          0.00999999	          0.03525367	          0.02151871	          0.01677423	          0.08550194	          0.02615147	          0.41949556	          0.01000019	          0.01780317	          0.24111851	          0.21836783	          0.00999999	          0.06584698	          0.09229822	          0.02204544	          0.07652643	          0.07929404	          0.08721957	          0.15812521	          0.11544144	          0.07192072	          0.00999999	          0.00999999	          0.01859946	          0.01304668	          0.33309592	
          0.67413026	         -7.88524257	          4.55829696	         -7.15629902	          0.81248248	          0.97655754	          0.01042733	        -10.62713160	         -4.91493523	          3.60707284	        -12.90991656	          7.64559384	         34.13077512	         30.73391226	          2.01193048	         -4.46009650	         -6.28087867	          4.93266472	          0.17972726	          0.44251673	         -4.16915247	          3.99070648	          0.11734078	          0.00999999	          0.00999999	          0.02908741	          0.03056087	          0.01679369	          0.07054670	          0.02157728	          0.39828313	          0.01000003	          0.01468920	          0.19894420	          0.18017287	          0.00999999	          0.06916457	          0.07615423	          0.01818945	          0.13141878	          0.10472232	          0.07261385	          0.13046735	          0.16389750	          0.05934099	          0.00999999	          0.00999999	          0.01534621	          0.01076467	          0.36643856	
          0.68684970	         -7.91592750	          4.48582883	         -7.03263294	          0.83095986	          0.97597129	          0.00997600	        -10.06211840	         -4.83110189	          3.20843090	        -15.76983497	          6.35540650	         35.95516365	         30.40488696	          2.12193954	         -4.35188475	         -7.49849633	          4.44460655	          0.14951388	          0.70033367	         -4.50126905	          4.00962337	          0.14829601	          0.00999999	          0.00999999	          0.02399970	          0.04959107	          0.01731091	          0.05820730	          0.01780318	          0.35899162	          0.00999999	          0.01211989	          0.16414665	          0.14865863	          0.00999999	          0.06914024	          0.06283401	          0.01500791	          0.16257928	          0.11957259	          0.06026820	          0.10764716	          0.19018221	          0.04896159	          0.00999999	          0.02969761	          0.01266199	          0.00999999	          0.39135086	
